# xmcd
#
# Track frame offsets:
#	150
#	14516
#	34548
#	49228
#	65397
#	84164
#	96642
#	118226
#	130251
#	145667
#	163293
#	182826
#	195735
#	208651
#	221346
#	232372
#	244793
#	257515
#	269795
#
# Disc length: 3673 seconds
#
# Revision: 0
# Processed by: cddbd v1.5.2PL0 Copyright (c) Steve Scherf et al.
# Submitted via: EasyCDDAExtractor 12.0.1.1
#
DISCID=250e5713
DTITLE=Nitty Gritty Dirt Band - Will The Circle Be Unbroken, Vol. 1 [cd1]
DYEAR=1972
DGENRE=Country
TTITLE0=Grand Ole Opry Song
TTITLE1=Keep On The Sunny Side
TTITLE2=Nashville Blues
TTITLE3=You Are My Flower
TTITLE4=The Precious Jewel
TTITLE5=Dark As A Dungeon
TTITLE6=Tennessee Stud
TTITLE7=Black Mountain Rag
TTITLE8=The Wreck On The Highway
TTITLE9=The End Of The World
TTITLE10=I Saw The Light
TTITLE11=Suuny Side Of The Mountain
TTITLE12=Nine Pound Hammer
TTITLE13=Losin' You (Might Be The Best Thing Yet)
TTITLE14=Honky Tonkin
TTITLE15=You Don't Know My Mind
TTITLE16=My Walkin' Shoes
TTITLE17=Lonesome Fiddle Blues
TTITLE18=Cannonball Rag
EXTD=
EXTT0=
EXTT1=
EXTT2=
EXTT3=
EXTT4=
EXTT5=
EXTT6=
EXTT7=
EXTT8=
EXTT9=
EXTT10=
EXTT11=
EXTT12=
EXTT13=
EXTT14=
EXTT15=
EXTT16=
EXTT17=
EXTT18=
PLAYORDER=
